<?xml version="1.0" standalone="no"?>
<!DOCTYPE svg PUBLIC "-//W3C//DTD SVG 20010904//EN"
 "http://www.w3.org/TR/2001/REC-SVG-20010904/DTD/svg10.dtd">
<svg version="1.0" xmlns="http://www.w3.org/2000/svg"
 width="512.000000pt" height="512.000000pt" viewBox="0 0 512.000000 512.000000"
 preserveAspectRatio="xMidYMid meet">
<metadata>
Created by potrace 1.14, written by Peter Selinger 2001-2017
</metadata>
<g transform="translate(0.000000,512.000000) scale(0.100000,-0.100000)"
fill="#000000" stroke="none">
<path d="M1885 4661 c-27 -77 -53 -137 -59 -134 -5 3 -6 1 -2 -5 7 -11 -5 -47
-92 -287 -22 -60 -74 -207 -116 -325 -42 -118 -83 -230 -91 -248 -8 -18 -15
-37 -15 -43 0 -6 -6 -25 -14 -42 -8 -18 -30 -79 -51 -137 -20 -58 -45 -127
-55 -155 -11 -27 -76 -207 -145 -400 -69 -192 -139 -386 -156 -430 -17 -44
-31 -84 -33 -90 -2 -5 -6 -17 -9 -25 -3 -8 -12 -35 -20 -60 -9 -25 -33 -94
-55 -155 -23 -60 -71 -193 -107 -295 -37 -102 -97 -270 -135 -375 -38 -104
-101 -280 -140 -390 -39 -110 -75 -209 -80 -220 -6 -11 -32 -83 -59 -160 -27
-77 -67 -191 -90 -253 l-40 -112 662 0 663 0 13 53 c8 28 16 57 20 62 3 6 6
17 8 25 1 8 18 67 38 130 20 63 51 165 69 225 18 61 46 154 62 208 l29 97 669
-2 668 -3 14 -41 c7 -22 15 -49 17 -60 2 -10 7 -26 10 -34 6 -16 32 -101 67
-220 12 -41 30 -100 40 -130 9 -30 34 -112 55 -183 l39 -127 667 0 668 0 -19
53 c-10 28 -39 110 -65 182 -26 72 -66 184 -90 250 -23 66 -45 127 -48 135 -4
8 -44 121 -91 250 -149 417 -256 714 -276 765 -10 28 -40 109 -65 180 -25 72
-54 153 -65 180 -18 49 -36 100 -100 280 -50 139 -71 198 -81 220 -4 11 -43
117 -85 235 -42 118 -94 265 -116 325 -22 61 -44 121 -48 135 -5 14 -18 50
-30 80 -12 30 -24 66 -27 80 -3 14 -9 30 -13 35 -4 6 -17 39 -29 75 -12 36
-56 158 -97 272 -42 114 -77 213 -78 220 -2 7 -8 24 -14 38 -12 28 -69 184
-134 367 l-43 123 -625 0 -625 0 -50 -139z m754 -1578 c18 -65 37 -131 42
-148 5 -16 31 -115 59 -220 67 -250 70 -264 125 -445 25 -85 48 -163 51 -172
5 -17 -17 -18 -360 -18 -203 0 -366 4 -366 9 0 5 14 53 31 107 29 94 137 471
144 505 6 27 66 251 90 334 13 44 28 99 34 123 l12 42 53 0 53 0 32 -117z"/>
</g>
</svg>
